<?xml version="1.0" encoding="UTF-8" standalone="no"?>
<!-- Created with Inkscape (http://www.inkscape.org/) -->

<svg
   width="48.209312mm"
   height="12.573473mm"
   viewBox="0 0 48.209312 12.573473"
   version="1.1"
   id="svg1"
   xml:space="preserve"
   xmlns="http://www.w3.org/2000/svg"
   xmlns:svg="http://www.w3.org/2000/svg"><defs
     id="defs1" /><g
     id="layer1"
     transform="translate(-106.24945,-143.30636)"><g
       id="g5"
       transform="translate(10.113751,10.040138)"><g
         id="g7"><path
           id="text1"
           mask="none"
           style="font-style:normal;font-variant:normal;font-weight:600;font-stretch:normal;font-size:9.50571px;font-family:Montserrat;-inkscape-font-specification:'Montserrat Semi-Bold';text-align:start;letter-spacing:0px;word-spacing:0px;writing-mode:lr-tb;direction:ltr;text-anchor:start;fill:#333333;stroke-width:0.560157"
           d="m 140.76124,138.99566 c -0.5133,0 -0.98849,0.0857 -1.42575,0.25683 -0.43726,0.1711 -0.8173,0.41192 -1.1405,0.72244 -0.32319,0.30418 -0.57342,0.6654 -0.75086,1.08365 -0.17744,0.41192 -0.26665,0.86479 -0.26665,1.35909 0,0.4943 0.0892,0.95066 0.26665,1.36891 0.17744,0.41191 0.42767,0.77314 0.75086,1.08365 0.3232,0.30419 0.70324,0.54204 1.1405,0.71314 0.43726,0.1711 0.91245,0.25631 1.42575,0.25631 0.51965,0 0.99483,-0.0852 1.42576,-0.25631 0.43726,-0.1711 0.81782,-0.40895 1.14101,-0.71314 0.3232,-0.31051 0.57342,-0.67174 0.75086,-1.08365 0.17744,-0.41825 0.26613,-0.87461 0.26613,-1.36891 0,-0.4943 -0.0887,-0.94717 -0.26613,-1.35909 -0.17744,-0.41825 -0.42766,-0.77947 -0.75086,-1.08365 -0.32319,-0.31052 -0.70375,-0.55134 -1.14101,-0.72244 -0.43093,-0.1711 -0.90611,-0.25683 -1.42576,-0.25683 z m -37.01686,0.0951 -0.47284,0.96945 h 0.84543 c 0.43092,0 0.76043,0.0763 0.98857,0.22841 0.23447,0.15209 0.35192,0.3835 0.35192,0.69402 0,0.30418 -0.11745,0.5321 -0.35192,0.68419 -0.22814,0.15209 -0.55765,0.2279 -0.98857,0.2279 h -1.73996 l -1.24488,2.55333 v 1.29656 h 3.30782 c 0.85551,0 1.50215,-0.15805 1.93941,-0.47491 0.4436,-0.31685 0.6656,-0.76084 0.6656,-1.33118 0,-0.43093 -0.111,-0.7857 -0.3328,-1.06454 -0.2218,-0.27883 -0.51018,-0.47504 -0.86506,-0.58911 0.25348,-0.13308 0.4591,-0.32336 0.61753,-0.5705 0.15843,-0.25349 0.23771,-0.55128 0.23771,-0.89349 0,-0.52598 -0.2091,-0.94418 -0.62735,-1.2547 -0.41825,-0.31686 -1.02673,-0.47543 -1.82521,-0.47543 z m 4.62142,0 v 6.65386 h 4.99091 v -1.03611 h -3.7548 v -1.83452 h 3.21272 V 141.857 h -3.21272 v -1.73012 h 3.62148 v -1.03612 z m 6.36913,0 v 6.65386 h 4.71495 v -1.04541 h -3.47937 v -5.60845 z m 5.54178,0 v 3.75481 c 0,0.96958 0.25667,1.71085 0.76997,2.22416 0.51965,0.5133 1.23565,0.76997 2.14819,0.76997 0.90621,0 1.61576,-0.25667 2.12907,-0.76997 0.51965,-0.51331 0.7798,-1.25458 0.7798,-2.22416 v -3.75481 h -1.21698 v 3.70727 c 0,0.68441 -0.14567,1.1819 -0.43718,1.49242 -0.29151,0.31052 -0.70675,0.4656 -1.2454,0.4656 -0.53866,0 -0.95686,-0.15508 -1.25471,-0.4656 -0.29151,-0.31052 -0.43718,-0.80801 -0.43718,-1.49242 v -3.70727 z m 6.61613,0 2.90835,6.65386 h 1.21698 l 2.89905,-6.65386 h -1.23559 l -2.23397,5.12372 -2.21485,-5.12372 z m 7.72769,0 v 6.65386 h 1.2361 v -6.65386 z m 6.14071,0.98857 c 0.44994,0 0.84932,0.10159 1.19786,0.30438 0.35488,0.19645 0.63386,0.47194 0.83664,0.82682 0.20279,0.35488 0.30386,0.75722 0.30386,1.20716 0,0.44994 -0.10107,0.85228 -0.30386,1.20716 -0.20278,0.35488 -0.48176,0.63386 -0.83664,0.83664 -0.34854,0.19646 -0.74792,0.29456 -1.19786,0.29456 -0.44993,0 -0.85228,-0.0981 -1.20716,-0.29456 -0.34854,-0.20278 -0.62403,-0.48176 -0.82682,-0.83664 -0.20279,-0.35488 -0.30437,-0.75722 -0.30437,-1.20716 0,-0.44994 0.10158,-0.85228 0.30437,-1.20716 0.20279,-0.35488 0.47828,-0.63037 0.82682,-0.82682 0.35488,-0.20279 0.75723,-0.30438 1.20716,-0.30438 z m -38.39353,2.77554 h 1.99627 c 0.46261,0 0.81739,0.0793 1.06454,0.23772 0.24715,0.15209 0.37103,0.3929 0.37103,0.72243 0,0.33587 -0.12388,0.58017 -0.37103,0.73226 -0.24715,0.15209 -0.60193,0.22789 -1.06454,0.22789 h -1.99627 z" /><g
           id="g4"
           transform="rotate(-2.3877367,494.33006,231.49)"
           style="fill:#fada99;fill-opacity:1"><path
             style="fill:#ffd682;fill-opacity:1;stroke-width:0.291042"
             d="m 107.04461,122.19335 1.26239,-0.0647 -1.23002,-1.87741 -4.88774,8.93387 h 1.16529 z"
             id="path3" /><path
             style="fill:#7d5fad;fill-opacity:1;stroke-width:0.291042"
             d="m 107.82147,118.95644 -1.19766,-1.94215 -6.57093,12.23552 h 1.10055 l 5.53512,-10.35811 z"
             id="path4" /></g></g></g></g></svg>
